<svg xmlns="http://www.w3.org/2000/svg" width="800" height="800" viewBox="0 0 800 800" version="1.1"><path d="M 574.500 252.426 C 573.950 252.647, 570.800 253.615, 567.500 254.577 C 556.037 257.920, 553.808 260.205, 557.757 264.561 C 558.724 265.628, 560.070 267.625, 560.750 269 C 561.429 270.375, 562.551 272.388, 563.243 273.474 C 569.200 282.828, 571.701 286.907, 572.901 289.225 C 574.378 292.080, 576 292.052, 576 289.173 C 576 284.485, 590.434 262.192, 593.561 262.049 C 594.145 262.022, 595.495 261.212, 596.561 260.250 C 598.714 258.307, 602.280 256.469, 605.851 255.464 C 607.510 254.996, 607.889 254.489, 607.139 253.739 C 606.127 252.727, 576.700 251.544, 574.500 252.426 M 623.996 260.831 C 623.993 261.199, 622.340 261.586, 620.321 261.691 C 615.796 261.927, 608 264.158, 608 265.218 C 608 265.648, 607.410 266, 606.689 266 C 605.967 266, 604.505 266.810, 603.439 267.800 C 602.372 268.791, 600.712 269.902, 599.750 270.269 C 598.788 270.637, 598 271.626, 598 272.469 C 598 273.311, 597.395 274, 596.655 274 C 595.449 274, 592 277.022, 592 278.079 C 592 278.310, 599.404 278.342, 608.453 278.148 C 623.165 277.834, 625.614 278.025, 631.586 279.954 C 635.260 281.141, 638.898 281.869, 639.671 281.573 C 640.512 281.250, 641.438 281.931, 641.975 283.267 C 642.469 284.495, 642.902 285.062, 642.937 284.527 C 642.971 283.993, 643.701 284.555, 644.557 285.777 C 645.413 287, 646.749 288, 647.525 288 C 648.302 288, 648.715 288.578, 648.444 289.285 C 648.173 289.992, 648.750 291.454, 649.727 292.535 C 653.303 296.492, 656.151 303.853, 659 316.500 C 660.349 322.487, 662.030 328.935, 662.782 331 C 663.501 332.977, 663.724 333.795, 663.875 335 C 663.944 335.550, 664.945 336, 666.101 336 C 668.028 336, 668.150 335.609, 667.573 331.250 C 667.228 328.637, 666.560 323.125, 666.089 319 C 664.652 306.420, 662.248 296, 660.782 296 C 660.352 296, 660 294.896, 660 293.547 C 660 290.807, 658.067 286, 656.964 286 C 656.572 286, 655.980 284.650, 655.650 283 C 655.298 281.240, 654.419 280, 653.525 280 C 652.615 280, 651.994 279.093, 651.985 277.750 C 651.972 275.931, 651.784 275.787, 651 277 C 650.246 278.167, 650.027 277.882, 650.015 275.719 C 650.006 274.042, 649.330 272.680, 648.313 272.290 C 647.385 271.934, 645.042 270.149, 643.106 268.323 C 641.171 266.497, 638.668 264.750, 637.544 264.439 C 636.420 264.128, 634.600 263.474, 633.500 262.984 C 630.206 261.519, 624 260.112, 623.996 260.831 M 600 292.063 C 595.875 293.083, 591.086 293.936, 589.357 293.959 C 585.779 294.006, 585.447 294.571, 584.484 302.283 C 583.810 307.675, 587.946 318.496, 591.191 319.833 C 591.636 320.017, 592 320.587, 592 321.101 C 592 321.616, 593.800 324.999, 596 328.620 C 598.200 332.242, 600 335.803, 600 336.535 C 600 339.364, 620.796 339.582, 637.500 336.928 C 652.089 334.611, 650.678 336.940, 646.844 321.500 C 639.986 293.891, 626.606 285.482, 600 292.063 M 647 345.525 C 641.580 346.582, 629.803 348.128, 619.750 349.101 C 613.288 349.727, 608 350.663, 608 351.181 C 608 352.047, 614.905 365.414, 619.013 372.500 C 630.946 393.082, 638 409.756, 638 417.379 C 638 421.448, 639.324 424.868, 643.082 430.500 C 647.235 436.725, 650.477 442.514, 657.082 455.500 C 660.438 462.100, 663.396 467.716, 663.655 467.980 C 664.459 468.798, 663.283 431.024, 662.194 421 C 661.625 415.775, 660.171 404.525, 658.962 396 C 657.752 387.475, 656.393 377.350, 655.941 373.500 C 655.489 369.650, 654.657 363.575, 654.093 360 C 653.528 356.425, 652.767 351.587, 652.402 349.250 C 651.738 345.010, 651.275 344.691, 647 345.525 M 668.314 382.149 C 669.040 389.771, 670.558 403.373, 671.982 415 C 674.121 432.478, 675.207 444.776, 675.420 453.940 C 675.666 464.537, 676.839 466.250, 679.789 460.315 C 687.277 445.251, 684.029 399.108, 674.262 381.809 C 669.784 373.877, 667.539 374.005, 668.314 382.149" stroke="none" fill="#d27d44" fill-rule="evenodd"/><path d="M -0 400.001 L -0 800.002 400.250 799.751 L 800.500 799.500 800.751 399.750 L 801.002 0 400.501 0 L 0 0 -0 400.001 M 0.495 400.500 C 0.495 620.500, 0.610 710.351, 0.750 600.169 C 0.890 489.986, 0.890 309.986, 0.750 200.169 C 0.610 90.351, 0.495 180.500, 0.495 400.500 M 393.902 76.526 C 378.632 80.232, 365.158 92.721, 343.450 123.285 C 332.398 138.846, 331.869 139.515, 330.834 139.225 C 330.293 139.074, 330.121 139.387, 330.451 139.921 C 330.781 140.455, 327.102 146.654, 322.275 153.696 C 317.448 160.738, 311.249 169.781, 308.499 173.792 C 301.271 184.336, 272.628 228.055, 270.500 231.792 C 268.532 235.248, 252.547 260.640, 247.764 267.908 C 245.082 271.982, 242.219 276.610, 241.401 278.191 C 240.544 279.849, 239.444 280.775, 238.803 280.378 C 238.162 279.982, 237.970 280.143, 238.350 280.758 C 238.925 281.687, 229.592 297.311, 210.728 327 C 202.920 339.287, 190.160 360.188, 186.206 367.166 C 179.362 379.244, 180.012 378.872, 171.771 375.404 C 146.900 364.935, 125.786 336.509, 121.474 307.684 C 120.729 302.705, 124.624 296.032, 127.308 297.690 C 127.858 298.030, 128.007 297.821, 127.638 297.224 C 127.269 296.627, 127.418 295.860, 127.969 295.519 C 129.411 294.628, 137.269 281.190, 138.783 277.027 C 143.785 263.268, 144.460 259.123, 142.228 255.858 C 137.953 249.604, 131.001 251.062, 125.636 259.336 L 123 263.400 122.992 258.450 C 122.948 229.467, 101.711 215.037, 99.238 242.310 L 98.695 248.296 96.952 244.897 C 88.569 228.558, 72.037 241.350, 78.421 259.236 L 79.754 262.971 76.800 260.486 C 66.043 251.434, 59.925 264.806, 67.819 280.114 C 69.555 283.479, 70.722 286.641, 70.413 287.141 C 70.104 287.641, 70.222 287.933, 70.676 287.790 C 71.129 287.648, 73.975 290.178, 77 293.413 C 82.556 299.356, 90.924 305.453, 94.455 306.134 C 95.990 306.429, 96.916 308.661, 99.072 317.253 C 108.532 354.961, 129.740 382.639, 160.137 396.946 C 165.592 399.513, 166.868 400.648, 163.676 400.094 C 163.222 400.015, 163.123 400.389, 163.454 400.926 C 164.019 401.840, 162.520 405.158, 158.903 411 C 156.406 415.033, 140.813 441.595, 134.191 453.096 C 104.409 504.818, 129.656 531.279, 218.500 541.460 C 237.165 543.598, 273.613 546.910, 286.750 547.662 C 292.938 548.015, 297.997 548.574, 297.994 548.902 C 297.991 549.231, 297.558 551.075, 297.030 553 C 294.191 563.368, 286.022 613.986, 285.985 621.439 C 285.957 626.942, 285.134 627.201, 276.958 624.279 C 249.466 614.456, 225.771 633.385, 244.699 650.050 C 246.790 651.890, 248.376 653.791, 248.225 654.272 C 248.074 654.754, 248.381 654.882, 248.908 654.557 C 249.434 654.232, 252.426 655.098, 255.557 656.483 C 258.687 657.867, 261.868 659, 262.624 659 C 263.381 659, 264 659.477, 264 660.059 C 264 660.641, 264.389 660.877, 264.866 660.583 C 265.342 660.289, 268.829 660.705, 272.616 661.507 C 287.281 664.614, 298.890 662.769, 303.778 656.555 C 306.116 653.583, 306.231 652.902, 308.521 628.500 C 310.852 603.656, 314.692 578.914, 319.667 556.677 L 321.194 549.853 337.347 550.514 C 346.231 550.878, 355.300 551.335, 357.500 551.530 C 359.700 551.725, 383.391 551.911, 410.147 551.943 L 458.795 552 459.945 558.605 C 464.851 586.777, 485.941 612.453, 510.823 620.547 C 517.949 622.865, 517.359 628.921, 510 628.994 C 495.933 629.136, 482.136 650.758, 490.333 659.816 C 491.252 660.831, 491.778 661.888, 491.502 662.164 C 491.226 662.441, 491.562 662.709, 492.250 662.760 C 492.937 662.811, 495.515 663.594, 497.978 664.500 C 513.609 670.250, 534.245 662.678, 540.743 648.809 C 552.166 624.432, 548.112 608.431, 529 602.460 C 520.099 599.679, 511.986 595.831, 512.674 594.718 C 513.043 594.121, 512.817 593.995, 512.135 594.416 C 507.425 597.328, 491.051 577.877, 486.624 564.110 C 482.606 551.617, 482.555 551.028, 485.481 550.825 C 489.229 550.565, 492.464 550.371, 506.107 549.593 C 565.099 546.227, 608.020 539.066, 629.862 528.947 C 633.362 527.326, 636.418 526, 636.654 526 C 636.891 526, 635.942 527.949, 634.546 530.331 C 631.434 535.641, 630.416 542.551, 632.238 546 C 635.830 552.801, 644.458 551.662, 647.920 543.929 C 650.292 538.633, 650.967 540.807, 650.986 553.795 C 651.002 564.741, 652.937 568, 659.421 568 C 663.050 568, 670 565.251, 670 563.815 C 670 563.367, 671.160 563, 672.577 563 C 676.535 563, 680.699 558.192, 681.528 552.663 C 682.203 548.158, 683.212 546.915, 684.500 549 C 685.675 550.901, 691.559 550.102, 693.701 547.750 C 704.206 536.216, 694.891 510.496, 675.385 497.183 C 673.316 495.770, 672.086 493.957, 671.721 491.778 C 671.418 489.975, 670.877 487.759, 670.518 486.854 C 670.026 485.612, 671.013 484.634, 674.540 482.873 C 703.743 468.288, 701.449 379.415, 671.456 363.396 C 668.117 361.612, 666.336 359.991, 666.187 358.601 C 666.064 357.445, 665.859 355.673, 665.732 354.662 C 665.567 353.355, 666.654 352.364, 669.500 351.229 C 689.900 343.093, 682.991 287.792, 658.538 263.493 C 635.950 241.046, 590.255 232.075, 556.876 243.536 C 552.819 244.928, 548.911 246.165, 548.190 246.284 C 546.898 246.497, 543.905 241.966, 527.199 214.500 C 522.516 206.800, 517.802 199.305, 516.724 197.845 C 515.590 196.308, 515.090 194.664, 515.537 193.941 C 515.972 193.236, 515.900 192.944, 515.372 193.270 C 514.857 193.588, 513.492 192.421, 512.339 190.675 C 508.548 184.932, 498.520 169.544, 497.500 167.902 C 495.964 165.431, 485.084 149.447, 478.770 140.386 C 475.660 135.923, 471.647 130.073, 469.852 127.386 C 440.287 83.125, 420.713 70.017, 393.902 76.526" stroke="none" fill="#ffffff" fill-rule="evenodd"/><path d="M 348.104 204.598 C 346.355 205.334, 342.689 208.051, 339.957 210.638 C 319.750 229.770, 305.327 232.600, 299.470 218.582 C 298.586 216.467, 297.509 215.134, 297.076 215.618 C 295.405 217.490, 229.129 322.287, 213.846 347.223 C 204.989 361.676, 191.564 383.400, 184.011 395.500 C 128.193 484.932, 124.834 498.324, 154.673 512.452 C 198.465 533.187, 373.908 544.698, 507 535.569 C 623.117 527.605, 656.134 512.555, 640.973 474.500 C 636.781 463.977, 632.023 454.868, 631.037 455.477 C 630.555 455.775, 629.494 455.351, 628.678 454.535 C 627.366 453.224, 627.126 453.229, 626.609 454.578 C 626.275 455.447, 626.448 455.841, 627.011 455.493 C 627.555 455.157, 628 455.411, 628 456.058 C 628 456.741, 628.838 457.014, 630 456.710 C 632.044 456.176, 632.503 457.196, 632.155 461.500 C 632.027 463.086, 632.187 463.200, 632.928 462.052 C 633.665 460.911, 634.006 461.175, 634.540 463.302 C 634.912 464.786, 635.648 466, 636.176 466 C 636.703 466, 636.831 466.956, 636.460 468.125 C 635.960 469.700, 636.117 470.046, 637.063 469.461 C 637.979 468.895, 638.154 469.157, 637.681 470.388 C 637.319 471.332, 637.431 471.852, 637.930 471.543 C 639.808 470.383, 640.233 476.910, 638.399 478.743 C 636.286 480.856, 626.916 481.247, 626.250 479.250 C 626.021 478.562, 625.234 478, 624.502 478 C 622.813 478, 615.774 470.046, 612.670 464.630 C 611.368 462.359, 608.427 457.458, 606.135 453.741 C 603.008 448.669, 602.099 446.297, 602.499 444.241 C 602.915 442.095, 602.843 441.933, 602.167 443.493 C 601.379 445.312, 601.148 445.180, 599.537 441.993 C 598.514 439.968, 598.324 439.025, 599.086 439.750 C 601.161 441.724, 602.196 441.205, 600.250 439.167 C 599.288 438.158, 598.315 437.480, 598.090 437.660 C 597.416 438.197, 594.747 433.920, 595.368 433.298 C 595.683 432.983, 595.133 431.550, 594.145 430.113 C 589.137 422.824, 585.916 412.158, 588.919 412.806 C 590.110 413.063, 590.124 412.855, 589.008 411.509 C 587.962 410.250, 587.507 410.180, 586.885 411.186 C 585.957 412.687, 583.131 406.584, 582.256 401.188 C 581.778 398.244, 580.635 397.070, 574.100 392.812 C 560.434 383.908, 558.168 380.321, 561.371 372.655 C 565.720 362.247, 587.472 371.502, 610.286 393.467 C 614.018 397.060, 617.532 400, 618.095 400 C 618.658 400, 618.877 400.390, 618.583 400.866 C 618.288 401.343, 618.937 402.538, 620.024 403.521 C 621.210 404.595, 622 404.836, 622 404.124 C 622 403.471, 621.328 402.679, 620.506 402.364 C 619.684 402.048, 619.263 401.383, 619.571 400.886 C 620.132 399.977, 614.870 389.831, 607.877 378.336 C 605.814 374.945, 599.097 363.245, 592.951 352.336 C 579.389 328.265, 555.872 288.884, 535.720 256.500 C 527.505 243.300, 518.477 228.787, 515.657 224.250 C 512.837 219.712, 510.159 216, 509.706 216 C 509.253 216, 509.157 215.555, 509.493 215.011 C 509.829 214.468, 509.484 214.261, 508.727 214.551 C 507.970 214.842, 505.359 214.232, 502.925 213.197 C 496.957 210.659, 492.657 209.637, 493.468 210.948 C 493.830 211.535, 493.505 211.747, 492.712 211.443 C 490.373 210.545, 489.001 213.402, 487.575 222.139 C 484.292 242.256, 472.454 245.003, 455.341 229.617 C 452.554 227.111, 449.987 225.347, 449.637 225.697 C 449.286 226.047, 449 225.757, 449 225.052 C 449 223.334, 434.209 208.181, 430.800 206.406 C 423.429 202.568, 419.600 205.108, 409.425 220.582 C 393.068 245.457, 378.497 245, 365.140 219.194 C 357.993 205.387, 354.120 202.069, 348.104 204.598 M 303.655 325.459 C 283.656 332.589, 287.126 369.231, 307.800 369.231 C 316.581 369.231, 322.747 364.467, 325.483 355.568 C 331.334 336.544, 319.263 319.894, 303.655 325.459 M 435.748 330.013 C 417.422 339.964, 424.066 374.115, 444.065 372.773 C 467.446 371.203, 468.381 329.599, 445.065 328.288 C 440.919 328.055, 438.544 328.494, 435.748 330.013 M 346.185 371.684 C 343.419 372.790, 342.886 376.955, 344.922 381.557 C 354.319 402.799, 390.961 406.322, 403.119 387.151 C 410.436 375.613, 402.798 369.681, 394.024 380.087 C 383.890 392.105, 366.451 391.242, 356.783 378.244 C 351.186 370.719, 350.170 370.090, 346.185 371.684" stroke="none" fill="#7d8f73" fill-rule="evenodd"/><path d="M 394 77.814 C 376.378 82.420, 364.110 95.001, 332.826 140.548 C 329.786 144.975, 325.572 151.050, 323.463 154.048 C 316.775 163.558, 287.745 207.065, 280.484 218.462 C 276.643 224.491, 267.114 239.566, 259.310 251.962 C 251.505 264.358, 240.030 282.566, 233.810 292.425 C 221.302 312.249, 219.161 315.684, 203.526 341 C 197.581 350.625, 191.244 361.065, 189.442 364.199 C 179.806 380.963, 180.275 380.763, 166.479 374.039 C 143.796 362.984, 126.692 338.959, 120.613 309.614 L 119.187 302.728 123.203 298.614 C 137.191 284.282, 146.289 258.341, 138.817 254.091 C 134.733 251.768, 129.933 254.438, 126.088 261.170 C 122.615 267.251, 122.395 266.927, 121.569 254.500 C 120.615 240.137, 118.045 233.754, 112.242 231.328 C 104.920 228.268, 101.340 232.270, 100.190 244.800 L 99.483 252.500 97.246 247.943 C 88.493 230.115, 73.212 240.231, 79.930 259.407 C 82.787 267.560, 82.617 267.823, 77.522 263.127 C 72.549 258.543, 69.977 258.023, 67 261 C 59.251 268.749, 73.892 293.775, 91.865 303.500 C 97.111 306.338, 97.482 306.796, 98.747 312 C 108.656 352.763, 130.762 382.658, 160.611 395.662 C 168.602 399.143, 171.619 391.883, 139.484 446.500 C 100.225 513.224, 129.866 535.121, 273.500 545.503 C 276.800 545.742, 283.887 546.218, 289.250 546.562 C 295.596 546.969, 299.003 547.590, 299.008 548.343 C 299.012 548.979, 297.246 558.725, 295.083 570 C 290.653 593.084, 288.334 607.975, 287.449 619 C 287.118 623.125, 286.687 627.019, 286.491 627.654 C 286.250 628.439, 283.366 627.854, 277.492 625.829 C 241.667 613.481, 223.290 641.552, 257.726 656.020 C 287.589 668.567, 304.297 663.008, 306.040 639.945 C 308.203 611.301, 316.820 556.966, 320.204 550.625 C 321.135 548.880, 322.184 548.793, 335.352 549.376 C 343.133 549.720, 374.316 550.287, 404.646 550.635 L 459.792 551.268 460.945 557.384 C 466.362 586.143, 484.037 608.443, 509.500 618.647 C 517.873 622.002, 518.015 622.200, 515.952 627.627 C 515.257 629.454, 514.296 630.002, 511.775 630.010 C 491.639 630.070, 480.777 658.422, 498.818 663.827 C 520.738 670.395, 539.397 658.050, 544.438 633.645 C 548.287 615.013, 544.798 609.630, 523.725 601.689 C 500.384 592.893, 488.385 579.926, 483.464 558.180 C 481.392 549.021, 480.347 549.675, 498.307 548.876 C 506.663 548.505, 518.675 547.718, 525 547.129 C 531.325 546.539, 539.875 545.791, 544 545.466 C 579.086 542.700, 613.348 535.415, 631.414 526.879 C 638.158 523.693, 639.834 523.964, 637.219 527.820 C 630.632 537.537, 631.653 549, 639.106 549 C 642.828 549, 645.649 546.485, 647.570 541.455 C 650.172 534.642, 651.394 537.260, 651.998 550.944 C 652.715 567.222, 657.244 571.148, 667.510 564.394 C 669.093 563.352, 671.721 562.050, 673.350 561.500 C 678.065 559.908, 680.003 556.343, 680.712 547.957 L 681.342 540.500 682.774 544 C 685.147 549.803, 689.035 550.692, 693.316 546.412 C 702.720 537.007, 692.972 511.021, 675.539 499.027 C 672.050 496.626, 671.191 495.338, 670.191 491.007 C 668.565 483.964, 668.457 484.265, 673.440 481.923 C 690.716 473.802, 696.380 455.125, 692.539 418.940 C 688.892 384.577, 680.935 366.772, 667.359 362.593 C 665.734 362.093, 665.051 360.827, 664.529 357.346 C 663.751 352.159, 664.043 351.707, 669.233 350.049 C 682.982 345.656, 683.502 308.531, 670.199 281.065 C 653.835 247.277, 599.132 230.120, 555.704 245.156 C 550.814 246.849, 546.471 247.841, 546.031 247.365 C 545.302 246.575, 533.032 226.744, 517.652 201.500 C 509.871 188.729, 475.919 138.035, 462.101 118.557 C 436.032 81.811, 418.603 71.384, 394 77.814 M 391.402 93.405 C 377.765 100.285, 369.729 109.420, 340.295 151.500 C 311.003 193.375, 255.088 279.929, 213.721 347.428 C 204.933 361.768, 191.564 383.400, 184.011 395.500 C 128.193 484.932, 124.834 498.324, 154.673 512.452 C 198.465 533.187, 373.908 544.698, 507 535.569 C 623.117 527.605, 656.134 512.555, 640.973 474.500 C 636.781 463.977, 632.023 454.868, 631.037 455.477 C 630.555 455.775, 629.494 455.351, 628.678 454.535 C 627.366 453.224, 627.126 453.229, 626.609 454.578 C 626.275 455.447, 626.448 455.841, 627.011 455.493 C 627.555 455.157, 628 455.411, 628 456.058 C 628 456.741, 628.838 457.014, 630 456.710 C 632.044 456.176, 632.503 457.196, 632.155 461.500 C 632.027 463.086, 632.187 463.200, 632.928 462.052 C 633.665 460.911, 634.006 461.175, 634.540 463.302 C 634.912 464.786, 635.648 466, 636.176 466 C 636.703 466, 636.831 466.956, 636.460 468.125 C 635.960 469.700, 636.117 470.046, 637.063 469.461 C 637.979 468.895, 638.154 469.157, 637.681 470.388 C 637.319 471.332, 637.431 471.852, 637.930 471.543 C 639.808 470.383, 640.233 476.910, 638.399 478.743 C 636.286 480.856, 626.916 481.247, 626.250 479.250 C 626.021 478.563, 625.234 478, 624.502 478 C 622.813 478, 615.774 470.046, 612.670 464.630 C 611.368 462.359, 608.427 457.458, 606.135 453.741 C 603.008 448.669, 602.099 446.297, 602.499 444.241 C 602.915 442.095, 602.843 441.933, 602.167 443.493 C 601.379 445.312, 601.148 445.180, 599.537 441.993 C 598.514 439.968, 598.324 439.025, 599.086 439.750 C 601.161 441.724, 602.196 441.205, 600.250 439.167 C 599.288 438.158, 598.315 437.480, 598.090 437.660 C 597.416 438.197, 594.747 433.920, 595.368 433.298 C 595.683 432.983, 595.133 431.550, 594.145 430.113 C 589.137 422.824, 585.916 412.158, 588.919 412.806 C 590.110 413.063, 590.124 412.855, 589.008 411.509 C 587.962 410.250, 587.507 410.180, 586.885 411.186 C 585.957 412.687, 583.131 406.584, 582.256 401.188 C 581.778 398.244, 580.635 397.070, 574.100 392.812 C 560.434 383.908, 558.168 380.321, 561.371 372.655 C 565.947 361.703, 588.816 372.146, 613.028 396.244 C 617.963 401.155, 622 404.903, 622 404.573 C 622 403.592, 612.345 385.598, 608.078 378.627 C 605.904 375.076, 599.098 363.245, 592.952 352.336 C 580.978 331.080, 552.078 282.537, 540.660 264.500 C 536.830 258.450, 529.549 246.750, 524.479 238.500 C 519.409 230.250, 512.246 218.593, 508.560 212.595 C 496.194 192.472, 455.254 131.594, 444.787 117.765 C 425.151 91.821, 409.078 84.487, 391.402 93.405 M 578.154 252.098 C 571.408 252.950, 556.394 257.553, 555.467 259.053 C 555.163 259.546, 559.421 267.455, 564.929 276.629 C 570.437 285.803, 575.132 292.677, 575.360 291.904 C 581.207 272.173, 590.820 261.304, 608.500 254.439 C 609.891 253.899, 608.217 253.427, 603 252.890 C 588.879 251.437, 584.493 251.297, 578.154 252.098 M 619.185 261.207 C 611.370 262.376, 603.383 266.690, 596.017 273.720 L 589.500 279.940 594 279.220 C 612.795 276.213, 635.028 279.267, 643.530 286.024 C 645.570 287.645, 647.704 288.683, 648.274 288.331 C 648.860 287.968, 649.010 288.175, 648.618 288.808 C 648.239 289.423, 649.040 291.688, 650.400 293.841 C 654.306 300.029, 655.752 304.209, 659.577 320.365 C 664.626 341.690, 664.233 340.625, 666.295 338.563 C 670.920 333.938, 664.041 296.903, 655.868 282.420 C 647.541 267.665, 632.841 259.165, 619.185 261.207 M 601 291.607 C 597.975 292.370, 593.250 293.336, 590.500 293.755 L 585.500 294.517 584.631 301.595 L 583.761 308.672 589.743 318.586 C 593.033 324.039, 596.953 330.929, 598.454 333.897 L 601.183 339.295 616.341 338.691 C 630.231 338.138, 648.440 335.893, 649.762 334.571 C 650.763 333.570, 644.784 312.590, 641.662 306.150 C 634.857 292.109, 620.038 286.809, 601 291.607 M 303.655 325.459 C 283.656 332.589, 287.126 369.231, 307.800 369.231 C 316.581 369.231, 322.747 364.467, 325.483 355.568 C 331.334 336.544, 319.263 319.894, 303.655 325.459 M 435.748 330.013 C 417.422 339.964, 424.066 374.115, 444.065 372.773 C 467.446 371.203, 468.381 329.599, 445.065 328.288 C 440.919 328.055, 438.544 328.494, 435.748 330.013 M 648 345.122 C 642.179 346.436, 618.886 348.997, 612.750 348.999 C 609.587 348.999, 607 349.236, 607 349.525 C 607 350.512, 613.790 363.491, 622.335 378.840 C 631.801 395.841, 636.540 407.707, 638.013 418.093 C 638.756 423.332, 639.799 426.121, 642.369 429.741 C 647.136 436.454, 658.115 456.529, 661.021 463.846 C 668.490 482.651, 664.905 430.607, 653.462 354.112 C 651.828 343.188, 652.399 344.129, 648 345.122 M 346.185 371.684 C 343.419 372.790, 342.886 376.955, 344.922 381.557 C 354.319 402.799, 390.961 406.322, 403.119 387.151 C 410.436 375.613, 402.798 369.681, 394.024 380.087 C 383.890 392.105, 366.451 391.242, 356.783 378.244 C 351.186 370.719, 350.170 370.090, 346.185 371.684 M 667.516 377.716 C 670.271 396.659, 674.997 445.755, 674.998 455.444 L 675 467.389 677.502 463.998 C 689.764 447.378, 684.038 385.117, 669.363 375.502 L 666.965 373.931 667.516 377.716" stroke="none" fill="#2d3226" fill-rule="evenodd"/><path d="M 400 91.058 C 400 91.694, 399.325 91.955, 398.500 91.638 C 397.675 91.322, 397 91.547, 397 92.138 C 397 92.730, 396.261 92.931, 395.359 92.584 C 393.986 92.057, 393.924 92.204, 394.981 93.477 C 396.020 94.729, 395.971 95, 394.706 95 C 393.859 95, 392.960 94.438, 392.708 93.750 C 392.354 92.783, 391.939 92.816, 390.875 93.897 C 390.096 94.688, 390.027 94.997, 390.716 94.609 C 392.152 93.800, 392.003 101.380, 390.557 102.699 C 390.075 103.139, 389.961 103.005, 390.306 102.401 C 390.650 101.796, 389.894 100.746, 388.627 100.068 C 386.289 98.817, 379.946 101.379, 379.801 103.633 C 379.671 105.647, 378.743 106.834, 376.925 107.309 C 375.341 107.724, 375.073 108.474, 375.452 111.437 C 375.880 114.776, 375.789 114.932, 374.296 113.439 C 373.030 112.173, 372.953 111.647, 373.945 111.034 C 374.794 110.509, 374.865 110.034, 374.157 109.597 C 373.576 109.238, 372.561 109.969, 371.903 111.222 C 370.535 113.825, 366 118.658, 366 117.514 C 366 117.097, 365.368 117.280, 364.595 117.921 C 363.122 119.144, 363.036 120.667, 364.324 122.729 C 365.151 124.053, 363.226 128.559, 362.250 127.583 C 361.927 127.260, 360.761 127.784, 359.659 128.748 C 358.558 129.712, 357.982 129.943, 358.380 129.261 C 358.866 128.431, 358.603 128.215, 357.584 128.606 C 356.747 128.927, 356.102 129.485, 356.150 129.845 C 356.413 131.829, 355.874 133.040, 354.975 132.485 C 354.412 132.136, 354.015 132.222, 354.094 132.676 C 354.515 135.100, 353.861 138, 352.893 138 C 352.284 138, 352.054 137.302, 352.382 136.448 C 352.751 135.485, 352.567 135.150, 351.894 135.565 C 351.299 135.933, 351.011 137.278, 351.255 138.553 C 351.499 139.828, 351.273 141.462, 350.755 142.185 C 350.086 143.118, 349.985 142.918, 350.408 141.500 L 351.005 139.500 349.459 141.500 C 348.609 142.600, 347.503 143.500, 347 143.500 C 345.474 143.500, 343.185 147.320, 343.781 148.872 C 344.155 149.846, 343.930 150.075, 343.103 149.563 C 342.306 149.071, 341.670 149.547, 341.316 150.899 C 341.014 152.055, 340.444 153, 340.050 153 C 338.936 153, 339.149 156.330, 340.369 158 C 340.995 158.857, 340.541 158.713, 339.309 157.664 C 337.164 155.837, 336.603 156.975, 338.306 159.700 C 339.113 160.991, 335.722 163.389, 334.631 162.298 C 334.284 161.951, 334 162.218, 334 162.892 C 334 163.566, 333.480 163.797, 332.845 163.405 C 332.153 162.977, 331.962 163.129, 332.367 163.784 C 332.738 164.385, 332.245 165.341, 331.271 165.908 C 330.191 166.537, 330.011 166.951, 330.809 166.970 C 331.529 166.986, 331.835 167.457, 331.490 168.016 C 331.144 168.575, 330.474 168.793, 330 168.500 C 329.526 168.207, 328.813 168.494, 328.415 169.138 C 327.988 169.828, 328.123 170.042, 328.741 169.660 C 329.823 168.991, 331.457 171.876, 330.524 172.810 C 330.236 173.098, 330 172.808, 330 172.167 C 330 171.525, 329.502 171, 328.893 171 C 328.277 171, 328.066 171.729, 328.416 172.641 C 328.927 173.974, 328.776 174.059, 327.612 173.093 C 326.502 172.172, 326.010 172.175, 325.435 173.106 C 324.963 173.869, 325.114 174.048, 325.845 173.595 C 327.400 172.635, 327.252 174.084, 325.569 176.303 C 324.537 177.665, 324.062 177.787, 323.630 176.803 C 323.316 176.086, 323.158 176.400, 323.279 177.500 C 323.401 178.600, 323.031 179.419, 322.458 179.319 C 321.884 179.220, 321.348 180.120, 321.266 181.319 C 321.127 183.341, 321.212 183.372, 322.426 181.739 C 323.546 180.234, 323.908 180.184, 324.917 181.400 C 325.825 182.494, 325.820 182.993, 324.894 183.565 C 324.131 184.037, 323.952 183.886, 324.405 183.155 C 324.797 182.520, 324.668 182, 324.118 182 C 323.568 182, 322.826 182.472, 322.470 183.049 C 322.034 183.754, 321.297 183.672, 320.219 182.799 C 319.001 181.811, 318.797 181.801, 319.371 182.757 C 319.813 183.493, 319.536 184.241, 318.702 184.561 C 317.481 185.029, 317.270 186.491, 317.872 190.309 C 317.943 190.754, 318.508 190.804, 319.130 190.420 C 319.819 189.994, 320.069 190.263, 319.772 191.111 C 319.263 192.562, 317.658 192.699, 314.827 191.534 C 313.664 191.055, 312.781 191.555, 311.931 193.172 C 310.742 195.437, 310.763 195.452, 312.686 193.748 C 313.773 192.784, 314.960 192.294, 315.325 192.658 C 315.957 193.291, 312.225 196.477, 310.833 196.493 C 310.467 196.497, 309.792 196.910, 309.333 197.410 C 308.870 197.917, 308.944 198.074, 309.500 197.765 C 311.508 196.650, 312.836 199.510, 311.266 201.568 C 309.865 203.405, 309.825 203.378, 310.448 201 C 311.055 198.684, 310.997 198.633, 309.653 200.303 C 308.563 201.657, 308.072 201.782, 307.680 200.803 C 307.393 200.086, 307.122 201.150, 307.079 203.167 C 307.035 205.223, 307.549 207.062, 308.250 207.353 C 308.938 207.639, 308.600 207.776, 307.500 207.658 C 306.400 207.539, 305.041 207.155, 304.480 206.804 C 303.840 206.404, 303.440 208.008, 303.407 211.106 C 303.378 213.857, 302.768 216.589, 302.030 217.273 C 300.960 218.265, 300.830 218.164, 301.353 216.750 C 302.253 214.315, 302.759 212.341, 302.239 213.292 C 302.001 213.727, 301.062 213.502, 300.153 212.792 C 298.667 211.631, 298.643 211.681, 299.908 213.292 C 300.974 214.650, 301.034 215.366, 300.158 216.242 C 298.650 217.750, 298.659 219.329, 300.170 218.395 C 300.981 217.894, 301.121 218.242, 300.627 219.530 C 299.942 221.316, 299.990 221.319, 301.881 219.608 C 303.805 217.867, 303.841 217.907, 303.560 221.452 C 303.333 224.319, 303.714 225.288, 305.386 226.093 C 307.484 227.103, 307.485 227.097, 305.500 225.421 C 303.573 223.792, 304.020 223.816, 308.414 225.574 C 309.795 226.127, 310.118 226, 309.573 225.119 C 309.059 224.286, 310.001 224.391, 312.531 225.449 C 316.728 227.202, 318.230 227.441, 316 226 C 315.139 225.444, 314.998 225.024, 315.668 225.015 C 316.311 225.007, 317.661 224.733, 318.668 224.406 C 320.192 223.911, 320.248 223.993, 319 224.890 C 316.794 226.477, 318.651 226.232, 322.015 224.492 C 323.911 223.512, 324.731 222.462, 324.359 221.492 C 324.044 220.671, 324.284 220, 324.893 220 C 325.502 220, 326 220.477, 326 221.059 C 326 221.641, 326.457 221.835, 327.016 221.490 C 327.575 221.144, 327.774 220.443, 327.457 219.931 C 327.141 219.419, 327.359 218.944, 327.941 218.875 C 328.523 218.806, 329.450 218.694, 330 218.625 C 330.550 218.556, 330.924 218.275, 330.831 218 C 330.377 216.657, 333.277 213.002, 334.785 213.015 C 336.231 213.028, 336.269 213.176, 335.029 213.961 C 334.220 214.473, 333.774 215.107, 334.037 215.371 C 334.556 215.889, 344 207.281, 344 206.290 C 344 205.960, 343.100 206.505, 342 207.500 C 340.900 208.495, 340 208.845, 340 208.277 C 340 206.567, 342.867 204.735, 344.539 205.377 C 345.564 205.770, 345.857 205.578, 345.388 204.819 C 344.895 204.021, 345.250 203.882, 346.530 204.373 C 348.338 205.067, 348.338 205.031, 346.539 203.043 C 345.522 201.919, 345.097 200.942, 345.595 200.871 C 348.890 200.402, 351.800 200.514, 351.440 201.098 C 351.205 201.477, 352.189 202.082, 353.625 202.442 C 355.061 202.802, 355.968 203.365, 355.641 203.693 C 354.910 204.424, 360.996 211.500, 362.356 211.500 C 362.893 211.500, 363.542 212.125, 363.796 212.889 C 364.075 213.725, 363.814 214.003, 363.141 213.587 C 362.417 213.140, 362.244 213.472, 362.651 214.532 C 363.153 215.841, 363.447 215.901, 364.124 214.834 C 364.589 214.100, 364.983 213.950, 365 214.500 C 365.017 215.050, 365.431 214.867, 365.921 214.094 C 366.530 213.132, 366.779 213.823, 366.709 216.282 C 366.653 218.258, 366.208 219.629, 365.721 219.328 C 365.234 219.026, 365.559 220.179, 366.443 221.890 C 367.328 223.600, 368.516 225, 369.085 225 C 369.653 225, 369.833 225.461, 369.485 226.025 C 369.136 226.588, 369.447 226.926, 370.176 226.775 C 370.904 226.624, 371.506 227.256, 371.513 228.179 C 371.532 230.766, 372.772 231.426, 374.726 229.893 C 376.351 228.617, 376.381 228.652, 375.082 230.305 C 373.829 231.899, 373.924 232.364, 375.896 234.305 C 377.409 235.793, 378.026 236.017, 377.813 235 C 377.575 233.857, 378.333 233.561, 381 233.756 C 383.598 233.946, 384.113 233.757, 383 233.022 C 382.175 232.477, 381.950 232.031, 382.500 232.031 C 384.402 232.031, 386.740 233.951, 385 234.084 C 384.175 234.148, 384.625 234.598, 386 235.086 C 388.335 235.914, 388.301 235.945, 385.500 235.556 C 383.850 235.327, 381.747 234.849, 380.827 234.493 C 379.608 234.021, 379.225 234.327, 379.414 235.618 C 379.558 236.594, 380.310 237.563, 381.087 237.772 C 382.136 238.054, 382.184 237.928, 381.274 237.282 C 380.531 236.754, 382.784 236.412, 387 236.412 C 391.216 236.412, 393.469 236.754, 392.726 237.282 C 391.816 237.928, 391.864 238.054, 392.913 237.772 C 394.327 237.391, 395.407 234.066, 394.162 233.926 C 387.937 233.227, 386.662 232.120, 392.378 232.378 C 394.874 232.491, 397.259 232.925, 397.678 233.344 C 398.096 233.763, 397.778 233.931, 396.970 233.717 C 396.161 233.503, 395.840 233.517, 396.256 233.749 C 396.672 233.981, 396.703 234.671, 396.326 235.282 C 395.948 235.893, 397.057 235.384, 398.789 234.150 C 402.268 231.673, 403.629 230, 402.166 230 C 401.642 230, 400.931 229.261, 400.584 228.359 C 400.057 226.986, 400.204 226.924, 401.477 227.981 C 403.308 229.500, 403.514 227.985, 401.750 225.977 C 401.063 225.194, 401.512 225.398, 402.750 226.432 C 404.999 228.309, 405.385 228.029, 405.054 224.758 C 404.942 223.653, 405.379 223.208, 406.251 223.543 C 407.871 224.165, 410.642 219.533, 410.202 216.937 C 410.038 215.969, 410.452 214.838, 411.122 214.425 C 411.963 213.905, 412.142 214.187, 411.701 215.336 C 410.764 217.778, 411.530 217.367, 413.489 214.377 C 414.434 212.934, 414.652 212.097, 413.974 212.516 C 413.215 212.985, 412.896 212.811, 413.145 212.064 C 413.368 211.396, 413.840 210.996, 414.194 211.175 C 414.549 211.354, 415.986 210.422, 417.389 209.105 C 420.031 206.622, 419.952 204.421, 417.257 205.455 C 415.991 205.941, 415.938 205.780, 416.958 204.551 C 418.050 203.234, 418.375 203.232, 419.671 204.528 C 421.432 206.289, 422.089 206.399, 421.750 204.875 C 421.612 204.256, 422.125 203.523, 422.889 203.245 C 423.740 202.936, 424.008 203.178, 423.580 203.870 C 422.630 205.408, 427.240 205.360, 428.783 203.817 C 429.434 203.166, 430.299 202.965, 430.704 203.371 C 431.110 203.777, 430.780 204.527, 429.971 205.039 C 428.832 205.760, 428.804 205.973, 429.847 205.985 C 430.588 205.993, 434.255 208.955, 437.997 212.567 C 442.656 217.065, 445.037 218.749, 445.554 217.913 C 446.068 217.080, 445.892 216.949, 445 217.500 C 444.152 218.024, 443.933 217.918, 444.378 217.198 C 445.153 215.944, 448 216.705, 448 218.166 C 448 218.690, 447.550 218.840, 447 218.500 C 446.450 218.160, 446 218.310, 446 218.834 C 446 219.358, 446.667 220.042, 447.483 220.355 C 448.299 220.668, 448.718 221.571, 448.415 222.361 C 448.112 223.151, 448.421 224.142, 449.102 224.563 C 449.966 225.097, 450.147 224.825, 449.701 223.664 C 449.350 222.749, 449.499 222, 450.031 222 C 450.564 222, 451 222.648, 451 223.441 C 451 225.528, 452.982 226.434, 454.337 224.966 C 455.252 223.975, 455.073 223.844, 453.500 224.355 C 451.642 224.959, 451.624 224.908, 453.250 223.642 C 455.369 221.992, 455.555 220.573, 453.551 221.342 C 452.574 221.717, 452.286 221.418, 452.668 220.424 C 453.085 219.336, 453.575 219.233, 454.535 220.029 C 455.937 221.192, 455.937 226.446, 454.535 227.721 C 454.064 228.150, 454.046 227.868, 454.494 227.095 C 455.061 226.118, 454.935 225.922, 454.079 226.451 C 453.175 227.010, 453.444 227.843, 455.095 229.602 C 456.331 230.916, 457.589 231.744, 457.892 231.442 C 458.194 231.139, 457.780 230.473, 456.971 229.961 C 456.162 229.449, 456.007 229.024, 456.628 229.015 C 457.986 228.997, 460.194 231.473, 459.467 232.200 C 459.184 232.483, 459.750 233.342, 460.726 234.107 C 462.339 235.374, 462.376 235.341, 461.128 233.750 C 460.189 232.553, 460.120 232, 460.910 232 C 461.545 232, 462.387 232.787, 462.782 233.750 C 463.177 234.713, 464.400 235.578, 465.500 235.674 C 466.600 235.770, 469.425 236.337, 471.778 236.935 C 475.130 237.787, 476.645 237.725, 478.778 236.648 C 480.275 235.893, 482.139 235.501, 482.920 235.777 C 484.115 236.200, 484.126 236.051, 482.993 234.838 C 481.823 233.585, 481.192 233.628, 478.175 235.166 C 476.266 236.139, 474.230 236.642, 473.651 236.285 C 473.049 235.912, 473.005 235.536, 473.549 235.404 C 474.072 235.278, 475.756 234.897, 477.291 234.558 C 478.826 234.219, 479.826 233.528, 479.514 233.023 C 478.897 232.025, 482.294 232.445, 484.158 233.598 C 484.853 234.027, 485.037 233.870, 484.624 233.200 C 484.247 232.591, 484.237 230.904, 484.602 229.451 C 485.057 227.637, 485.510 227.207, 486.048 228.077 C 486.478 228.774, 486.756 226.229, 486.665 222.422 C 486.539 217.139, 486.814 215.565, 487.825 215.775 C 488.680 215.953, 488.954 215.420, 488.598 214.275 C 487.889 211.995, 488.747 210.787, 492.719 208.477 C 496.051 206.540, 498.379 207.094, 496.037 209.267 C 494.981 210.246, 494.852 210.242, 495.412 209.250 C 495.800 208.563, 495.641 208, 495.059 208 C 493.707 208, 493.683 209.686, 495.023 210.514 C 497.388 211.976, 501.867 208.696, 501.497 205.774 C 501.276 204.026, 501.531 203.210, 502.175 203.608 C 502.743 203.959, 502.434 203.066, 501.489 201.623 C 500.543 200.180, 499.345 199, 498.826 199 C 498.307 199, 498.141 198.581, 498.457 198.069 C 498.774 197.557, 498.598 196.869, 498.066 196.541 C 497.535 196.213, 496.617 196.846, 496.027 197.949 C 495.147 199.593, 495.229 199.849, 496.477 199.371 C 497.315 199.049, 498 199.223, 498 199.756 C 498 200.290, 496.988 200.621, 495.750 200.491 C 492.545 200.155, 492.373 200.055, 493.585 199.235 C 496.983 196.935, 496.404 190, 492.814 190 C 492.288 190, 492.598 190.740, 493.502 191.645 C 494.831 192.974, 494.893 193.452, 493.824 194.130 C 491.944 195.322, 491.292 195.202, 490.658 193.551 C 490.293 192.601, 490.582 192.286, 491.498 192.637 C 492.654 193.081, 492.688 192.730, 491.697 190.594 C 491.039 189.176, 490.107 188.012, 489.628 188.008 C 489.148 188.004, 489.373 187.241, 490.128 186.313 C 491.338 184.824, 491.280 184.708, 489.629 185.328 C 488.110 185.898, 487.858 185.652, 488.286 184.016 C 488.883 181.732, 487.514 180.359, 486.415 182.138 C 485.932 182.919, 486.127 183.039, 487 182.500 C 487.873 181.961, 488.068 182.081, 487.585 182.862 C 486.347 184.866, 484.901 183.053, 486.040 180.925 C 486.834 179.442, 486.775 179.035, 485.793 179.236 C 485.027 179.392, 484.590 178.685, 484.721 177.500 C 484.842 176.400, 484.692 176.063, 484.388 176.750 C 484.083 177.438, 483.083 177.993, 482.167 177.985 C 481.214 177.976, 480.928 177.655, 481.500 177.235 C 482.995 176.137, 483.217 173.252, 481.872 172.421 C 481.081 171.932, 480.958 172.123, 481.500 173 C 482.051 173.892, 481.920 174.068, 481.086 173.553 C 480.414 173.138, 480.073 172.253, 480.328 171.587 C 480.584 170.921, 479.909 169.279, 478.829 167.938 C 477.005 165.673, 476.944 165.660, 477.968 167.750 C 478.707 169.258, 478.729 170, 478.035 170 C 477.466 170, 477 169.602, 477 169.117 C 477 167.746, 473.149 167.069, 472.674 168.356 C 472.443 168.985, 472.309 168.306, 472.377 166.846 C 472.444 165.386, 472.886 164.430, 473.357 164.721 C 473.829 165.012, 473.893 164.238, 473.500 163 C 472.957 161.288, 473.110 160.917, 474.143 161.449 C 474.889 161.834, 474.637 161.448, 473.582 160.591 C 472.110 159.396, 471.341 159.302, 470.276 160.186 C 469.321 160.978, 468.983 160.995, 469.194 160.240 C 469.362 159.636, 468.600 158.410, 467.500 157.515 C 465.580 155.955, 465.601 155.940, 468 157.147 C 471.618 158.966, 474.002 159.245, 471.766 157.588 C 470.812 156.881, 470.362 155.972, 470.766 155.568 C 471.169 155.164, 471.050 154.924, 470.500 155.035 C 468.189 155.501, 467.001 154.893, 467.015 153.250 C 467.028 151.754, 467.172 151.718, 468 153 C 468.533 153.825, 468.976 154.013, 468.985 153.417 C 469.009 151.678, 467.778 150.940, 466.551 151.958 C 465.776 152.601, 465.371 152.275, 465.269 150.927 C 465.179 149.732, 465.551 149.223, 466.215 149.633 C 466.877 150.042, 467.023 149.846, 466.585 149.138 C 466.187 148.494, 465.366 148.274, 464.761 148.648 C 464.063 149.079, 463.883 148.746, 464.271 147.737 C 464.614 146.842, 464.167 145.568, 463.249 144.823 C 462.064 143.863, 461.822 143.843, 462.367 144.750 C 462.803 145.476, 462.609 146, 461.904 146 C 461.151 146, 461.377 146.759, 462.500 148 C 463.495 149.100, 463.845 150, 463.277 150 C 461.007 150, 459.928 147.319, 461.031 144.419 C 462.096 141.618, 462.088 141.610, 460.052 143.453 C 458.906 144.490, 458 144.800, 458 144.155 C 458 143.520, 458.422 143, 458.938 143 C 459.454 143, 459.806 142.073, 459.721 140.940 C 459.604 139.397, 459.056 139.008, 457.533 139.390 C 455.599 139.876, 455.589 139.834, 457.333 138.530 C 459.092 137.213, 459.081 137.114, 457.055 136.029 C 455.894 135.408, 455.215 134.360, 455.546 133.700 C 455.877 133.040, 455.440 133.374, 454.574 134.441 C 453.593 135.651, 453 135.888, 453 135.069 C 453 134.051, 452.682 134.019, 451.589 134.926 C 450.509 135.823, 450.004 135.815, 449.435 134.894 C 448.929 134.076, 449.115 133.953, 450.015 134.510 C 450.981 135.106, 451.164 134.871, 450.692 133.641 C 450.164 132.264, 450.377 132.132, 451.851 132.920 C 453.274 133.682, 453.628 133.527, 453.517 132.194 C 453.324 129.860, 450.970 125.697, 450.250 126.417 C 449.531 127.136, 446 124.067, 446 122.723 C 446 122.190, 446.788 122.373, 447.750 123.128 C 449.323 124.361, 449.366 124.329, 448.177 122.809 C 447.449 121.880, 446.212 121.365, 445.427 121.666 C 443.685 122.335, 443.621 123.221, 445.200 124.800 C 446.054 125.654, 446.073 126, 445.267 126 C 443.483 126, 442.577 121.883, 444.143 120.890 C 445.141 120.258, 445.170 120.027, 444.250 120.015 C 443.563 120.007, 443 119.325, 443 118.500 C 443 117.675, 442.530 117, 441.956 117 C 441.382 117, 441.045 116.223, 441.206 115.274 C 441.402 114.122, 440.835 113.540, 439.503 113.524 C 438.186 113.508, 437.499 112.818, 437.487 111.500 C 437.460 108.439, 435.984 106.771, 433.808 107.340 C 432.417 107.704, 431.998 107.447, 432.376 106.463 C 432.686 105.656, 431.664 104.185, 429.943 102.959 C 428.311 101.798, 427.214 100.463, 427.505 99.993 C 427.795 99.523, 427.635 98.892, 427.148 98.592 C 425.929 97.838, 426.260 102.302, 427.500 103.326 C 428.093 103.816, 427.890 103.969, 427 103.701 C 426.175 103.453, 425.613 102.744, 425.750 102.125 C 425.887 101.506, 425.550 101, 425 101 C 424.450 101, 424.049 100.662, 424.108 100.250 C 424.437 97.972, 422.666 95.191, 421.237 95.739 C 420.146 96.158, 419.910 95.954, 420.459 95.066 C 420.907 94.342, 420.114 94.534, 418.623 95.511 C 417.180 96.457, 415.944 96.953, 415.875 96.615 C 415.806 96.277, 415.694 95.483, 415.625 94.851 C 415.422 92.983, 410 91.199, 410 93 C 410 93.550, 410.788 94.032, 411.750 94.070 C 413.233 94.130, 413.195 94.261, 411.500 94.933 C 409.275 95.815, 407.580 93.341, 409.099 91.428 C 409.677 90.699, 408.355 90.282, 404.975 90.128 C 401.746 89.981, 400 90.307, 400 91.058" stroke="none" fill="#e3e5df" fill-rule="evenodd"/></svg>